<?xml version="1.0" encoding="utf-8"?>
<!-- Generator: Adobe Illustrator 19.2.1, SVG Export Plug-In . SVG Version: 6.00 Build 0)  -->
<svg version="1.1" id="Layer_1" xmlns="http://www.w3.org/2000/svg" xmlns:xlink="http://www.w3.org/1999/xlink" x="0px" y="0px"
	 viewBox="0 0 141 150" style="enable-background:new 0 0 141 150;" xml:space="preserve">
<style type="text/css">
	.st0{fill:#895734;}
	.st1{fill:#FFFFFF;}
	.st2{fill:#CBDEAE;}
	.st3{fill:#869A42;}
	.st4{fill:#6D6E71;}
	.st5{fill:#B6B8BA;}
	.st6{fill:#414042;}
	.st7{fill:#C6C5C6;}
	.st8{fill:#333233;}
	.st9{fill:#D7AC79;}
	.st10{fill:#FFD425;}
	.st11{fill:#C18049;}
	.st12{fill:#C39A61;}
	.st13{fill:#FFBB28;}
	.st14{fill:#B16F3B;}
	.st15{fill:#474A4C;}
	.st16{fill:#E0E1E2;}
	.st17{fill:#CED0D1;}
	.st18{fill:#6DD093;}
	.st19{fill:#73D9FF;}
	.st20{fill:#B3A092;}
	.st21{fill:#73747A;}
	.st22{fill:#E58B7E;}
	.st23{fill:#A3D3E3;}
	.st24{fill:#EDC98B;}
	.st25{fill:#C2E0BB;}
	.st26{fill:#F1B2AD;}
	.st27{fill:#EDB86E;}
	.st28{fill:#F1999C;}
	.st29{fill:#9F755A;}
	.st30{fill:#D8A899;}
	.st31{fill:#F5AA40;}
	.st32{fill:#C88F7B;}
	.st33{fill:#EBECEC;}
	.st34{fill:#F19C1A;}
	.st35{fill:#594A42;}
	.st36{fill:#84949D;}
	.st37{fill:#CBCDCE;}
	.st38{fill:#B4CDFF;}
	.st39{fill:#9CCCA1;}
	.st40{fill:#86BB8B;}
	.st41{fill:#99B5E8;}
	.st42{fill:#4A5F68;}
	.st43{fill:#FFB455;}
	.st44{fill:#E99443;}
	.st45{fill:#FFC75D;}
	.st46{fill:#F12C23;}
	.st47{fill:#8E1E1A;}
	.st48{opacity:0.4;}
	.st49{fill:none;}
	.st50{fill:#BCD6FF;}
	.st51{fill:#475CCA;}
	.st52{fill:#958079;}
	.st53{fill:#D0945B;}
	.st54{fill:#7C6A64;}
	.st55{fill:#B3804D;}
	.st56{fill:#5E3D56;}
	.st57{fill:#4A4A4B;}
	.st58{fill:#FFBD56;}
	.st59{opacity:0.7;fill:#FFB13C;}
	.st60{fill:#312E32;}
	.st61{fill:#DFA74D;}
	.st62{fill:#F2F2F2;}
	.st63{fill:#2B4980;}
	.st64{fill:#4B5974;}
	.st65{fill:#647597;}
	.st66{fill:#A1DB93;}
	.st67{fill:#FFE98C;}
	.st68{fill:#393C5D;}
	.st69{fill:#73DEDF;}
	.st70{fill:#3CC9D1;}
	.st71{fill:#91E7E9;}
	.st72{fill:#231F3A;}
	.st73{fill:#739EAD;}
	.st74{fill:#A9BB83;}
	.st75{fill:#92AD6D;}
	.st76{fill:#6083A0;}
	.st77{fill:#FAA969;}
	.st78{fill:#E6965F;}
	.st79{fill:#F4909D;}
	.st80{fill:#E07A86;}
	.st81{fill:#344072;}
	.st82{fill:#BEE077;}
	.st83{fill:#9FC168;}
	.st84{fill:#84A64E;}
	.st85{fill:#8F7F6E;}
	.st86{fill:#75695A;}
	.st87{fill:#4F5942;}
	.st88{fill:#F5E9B4;}
	.st89{fill:#E75C54;}
	.st90{fill:#F3D18C;}
	.st91{fill:#B81E2D;}
	.st92{fill:#C2A161;}
	.st93{fill:#E0D0B0;}
	.st94{fill:#D7BE7C;}
	.st95{fill:#D6AA60;}
	.st96{fill:#CB4B3A;}
	.st97{fill:#A2181F;}
	.st98{fill:#AB8343;}
	.st99{fill:#FF9598;}
	.st100{fill:#DDC2C1;}
	.st101{fill:#5C1825;}
	.st102{fill:#FFE1C7;}
	.st103{fill:#FFEFE0;}
	.st104{fill:#E8C59E;}
	.st105{fill:#BCAF95;}
	.st106{fill:#A89D85;}
	.st107{fill:#998F79;}
	.st108{fill:#C7B99E;}
	.st109{fill:#F4C46D;}
	.st110{fill:#F4B23B;}
	.st111{fill:#8A755F;}
	.st112{fill:#70CF89;}
	.st113{fill:#1CC7C7;}
	.st114{fill:#148A8A;}
	.st115{fill:#B07A2E;}
	.st116{fill:#595A5C;}
	.st117{fill:#73635E;}
	.st118{fill:#4C8C5D;}
	.st119{fill:#4C4148;}
	.st120{fill:#F6B139;}
	.st121{fill:#F69139;}
	.st122{fill:#86AD53;}
	.st123{fill:#6A8C3B;}
	.st124{fill:#61503A;}
	.st125{fill:#FFD336;}
	.st126{fill:#FF8321;}
	.st127{fill:#FFDF6B;}
	.st128{fill:#FFA359;}
	.st129{fill:#F0BC00;}
	.st130{fill:#E36F12;}
	.st131{fill:#E8E8E8;}
	.st132{fill:#9A4F1E;}
	.st133{fill:#9980BA;}
	.st134{fill:#E5E6E6;}
	.st135{fill:#7B7180;}
	.st136{fill:#4FAEC2;}
	.st137{fill:#DB7EA9;}
</style>
<g>
	<g>
		<circle class="st133" cx="83" cy="56.999" r="5"/>
	</g>
	<g>
		<circle class="st133" cx="57" cy="56.999" r="5"/>
	</g>
	<g>
		<path class="st133" d="M59,71.999h22c0,6.08-4.92,11-11,11S59,78.079,59,71.999z"/>
	</g>
	<g>
		<path class="st1" d="M136.46,78.389c1.64,1.64,2.46,3.78,2.46,5.93s-0.83,4.31-2.47,5.95l-13.1,13.11
			c1.94,12.21,4.03,23.55,6.5,34.67c-1.58-1.17-4.02-2.53-6.14-2.5c-3.49,0.04-6.08,2.27-8.12,4.81c-1.97,2.46-5.94,6.83-9.68,6.72
			c-6.21-0.19-9.76-6.74-11.41-8.35c-2.43-2.38-4.35-2.78-6.47-2.76c-3.49,0.05-6.09,2.27-8.12,4.82c-1.97,2.46-5.94,6.75-9.68,6.71
			c-3.73,0.04-7.7-4.25-9.67-6.71c-2.03-2.54-4.62-4.76-8.11-4.8c-2.12-0.03-4.05,0.37-6.48,2.76c-1.65,1.61-5.2,8.16-11.42,8.36
			c-3.73,0.12-7.7-4.25-9.67-6.71c-2.03-2.54-4.62-4.77-8.11-4.81c-2.12-0.02-4.08,1.34-5.67,2.51c2.48-11.12,4.58-22.46,6.53-34.68
			L4.54,90.329c-3.28-3.28-3.28-8.6,0-11.89c1.64-1.64,3.79-2.46,5.94-2.46s4.3,0.82,5.94,2.46l4.28,4.22
			c1.98-14.38,3.59-28.33,4.86-40.48c2.39-22.93,21.73-40.35,44.79-40.36h0.48c23.18-0.01,42.56,17.59,44.79,40.66
			c1.14,11.75,2.85,26.29,4.67,40.14l4.29-4.22C127.86,75.109,133.18,75.109,136.46,78.389z"/>
	</g>
	<g>
		<g>
			<path class="st134" d="M39.483,117.987l3.473-23.483c2.24-16.266,4.061-32.046,5.498-45.79
				C50.707,27.086,66.297,9.803,86.537,4.646C81.634,2.82,76.342,1.817,70.83,1.819h-0.48c-23.06,0.01-42.4,17.43-44.79,40.36
				c-1.27,12.15-2.88,26.1-4.86,40.48l-4.28-4.22c-1.64-1.64-3.79-2.46-5.94-2.46s-4.3,0.82-5.94,2.46c-3.28,3.29-3.28,8.61,0,11.89
				l13.09,13.09c-1.95,12.22-4.05,23.56-6.53,34.68c1.59-1.17,3.55-2.53,5.67-2.51c3.49,0.04,6.08,2.27,8.11,4.81
				c1.917,2.394,5.728,6.585,9.369,6.698C36.153,137.732,37.865,128.129,39.483,117.987z"/>
		</g>
	</g>
	<path class="st135" d="M140.92,84.32c0-2.772-1.082-5.381-3.046-7.345c-1.963-1.963-4.572-3.044-7.349-3.044
		c-0.002,0-0.005,0-0.008,0c-2.779,0.002-5.391,1.088-7.34,3.043l-1.423,1.399c-1.689-13.122-3.146-25.805-4.144-36.086
		C115.27,18.072,95.171-0.181,70.85-0.181c-0.006,0-0.015,0-0.021,0h-0.48C46.184-0.17,26.074,17.952,23.571,41.971
		c-1.337,12.791-2.787,25.034-4.315,36.457l-1.421-1.402c-1.964-1.964-4.575-3.046-7.354-3.046c-2.778,0-5.391,1.082-7.356,3.048
		c-4.051,4.062-4.05,10.664,0.002,14.716l12.367,12.368c-1.98,12.312-4.059,23.299-6.345,33.552
		c-0.182,0.814,0.161,1.655,0.859,2.11c0.698,0.457,1.606,0.431,2.278-0.063c1.459-1.074,3.003-2.121,4.435-2.121
		c0.009,0,0.018,0,0.026,0c2.291,0.026,4.379,1.316,6.572,4.061c3.968,4.953,7.692,7.463,11.076,7.463
		c0.073,0,0.146-0.002,0.219-0.004c5.893-0.189,9.66-5.029,11.685-7.63c0.427-0.548,0.83-1.065,1.073-1.304
		c2.093-2.059,3.513-2.21,5.056-2.186c2.296,0.026,4.384,1.312,6.571,4.05c2.73,3.409,6.879,7.461,11.138,7.46
		c0.047,0,0.097,0,0.146,0c4.309,0,8.459-4.051,11.192-7.464c2.183-2.741,4.275-4.033,6.574-4.066
		c1.535-0.03,2.962,0.141,5.055,2.192c0.238,0.232,0.643,0.752,1.07,1.301c2.024,2.599,5.791,7.436,11.678,7.616
		c3.421,0.109,7.25-2.411,11.298-7.467c2.205-2.745,4.297-4.036,6.589-4.062c1.267,0.028,3.144,0.789,4.922,2.107
		c0.67,0.495,1.579,0.522,2.28,0.07c0.699-0.455,1.044-1.297,0.862-2.111c-2.273-10.231-4.341-21.214-6.316-33.544l12.378-12.389
		C139.835,89.712,140.92,87.098,140.92,84.32z M135.035,88.855l-13.1,13.11c-0.452,0.453-0.66,1.096-0.561,1.728
		c1.764,11.104,3.601,21.127,5.589,30.491c-1.036-0.387-2.185-0.635-3.276-0.635c-3.527,0.041-6.686,1.858-9.659,5.561
		c-3.086,3.854-5.997,6.039-8.057,5.971c-4.006-0.123-6.796-3.705-8.642-6.076c-0.559-0.717-1-1.283-1.431-1.703
		c-3.026-2.965-5.604-3.344-7.897-3.332c-3.552,0.051-6.71,1.874-9.653,5.57c-3.006,3.755-5.996,5.955-8.14,5.96
		c-0.01,0-0.021,0-0.03,0c-2.058,0-5.065-2.225-8.056-5.959c-2.953-3.694-6.109-5.51-9.645-5.551
		c-2.295-0.027-4.874,0.349-7.906,3.329c-0.433,0.422-0.873,0.987-1.43,1.703c-1.848,2.373-4.64,5.96-8.657,6.089
		c-2.057,0.053-4.959-2.109-8.043-5.959c-2.958-3.702-6.114-5.521-9.653-5.562c-0.983-0.011-1.898,0.187-2.77,0.506
		c1.989-9.343,3.825-19.324,5.585-30.36c0.102-0.634-0.107-1.276-0.561-1.729l-13.09-13.09c-2.494-2.494-2.493-6.561,0-9.062
		c1.209-1.209,2.816-1.874,4.526-1.874s3.317,0.665,4.535,1.884l4.28,4.22c0.54,0.531,1.334,0.711,2.048,0.47
		c0.717-0.244,1.234-0.871,1.338-1.621c1.732-12.579,3.37-26.22,4.868-40.545C29.84,20.409,48.241,3.829,70.35,3.819h0.48
		c0.007,0,0.012,0,0.019,0c22.249,0,40.639,16.7,42.78,38.853c1.102,11.363,2.763,25.643,4.677,40.208
		c0.1,0.752,0.615,1.384,1.332,1.631c0.717,0.246,1.513,0.066,2.054-0.466l4.304-4.233c1.209-1.212,2.815-1.88,4.524-1.882
		c0.002,0,0.004,0,0.005,0c1.708,0,3.312,0.665,4.521,1.873c1.208,1.209,1.874,2.812,1.874,4.517
		C136.92,86.029,136.251,87.64,135.035,88.855z"/>
	<g>
		<circle class="st136" cx="83" cy="56.999" r="5"/>
	</g>
	<g>
		<path class="st137" d="M81,71.999H59c0,6.08,4.92,11,11,11S81,78.079,81,71.999z"/>
	</g>
	<g>
		<circle class="st136" cx="57" cy="56.999" r="5"/>
	</g>
</g>
</svg>
